<svg xmlns="http://www.w3.org/2000/svg" width="300" height="150" viewBox="0 0 300 150" version="1.1">
	<path d="M 48.868 24.911 C 46.229 29.140, 43.707 31.657, 39.646 34.116 L 34.057 37.500 34.028 74.155 L 34 110.810 38.363 113.367 C 42.975 116.070, 47.580 120.787, 50.606 125.910 L 52.431 129 149.466 128.972 L 246.500 128.943 249.788 123.510 C 252.129 119.642, 254.642 117.129, 258.510 114.788 L 263.943 111.500 263.972 74.345 L 264 37.190 259.605 34.615 C 254.731 31.758, 250.567 27.257, 248.193 22.279 L 246.630 19 149.565 19.045 L 52.500 19.090 48.868 24.911" stroke="none" fill="#000000" fill-rule="evenodd"/>
</svg>